M48
;Layer_Color=9474304
;FILE_FORMAT=4:3
METRIC,LZ
;TYPE=PLATED
T01F00S00C0.711
T02F00S00C0.850
T03F00S00C0.900
T04F00S00C1.016
T05F00S00C1.020
T06F00S00C1.199
T07F00S00C1.200
T08F00S00C1.206
T09F00S00C1.614
T10F00S00C2.184
T11F00S00C2.540
%
T01
X008001Y0046228
X0082423Y0047371
X0084836Y0048514
X0077343Y0044958
T02
X0015439Y0021717
X0024439
X0038807Y0030988
X0038934Y003683
X0012192Y0033219
X0047807Y0030988
X0047934Y003683
X0048133Y0042672
X0048061Y004826
X0048116Y0053975
Y0059817
X0046355Y0066747
X0040767
Y0075747
X0046355
X0052197
X0057912Y0075692
X0063627Y007562
Y006662
X0057912Y0066692
X0052197Y0066747
X0035052
Y0075747
X0039116Y0059817
Y0053975
X0039061Y004826
X0039133Y0042672
X0012192Y0042219
X0012446Y0049348
Y0058348
T03
X0005588Y0015494
Y0018034
X0005715Y0034544
Y0037084
X0005207Y0054102
Y0056642
T04
X0010795Y0016129
X0014605
X0025908
X0029718
X002921Y0030607
Y0034417
X0041021Y0016129
X0044831
X0056642
X0060452
X0081661Y0020447
Y0024257
X0082423Y0036449
Y0040259
X0081788Y0057023
X0086788
X0085852Y0070993
X0088392
X0090932
X0083312
X0080772
X0078232
X0075692
X0073152
X0070612
X0029464Y0063627
Y0059817
X0029337Y0048387
Y0044577
X0036576Y0083693
X0038862
X0024765Y0093853
Y0096393
X0022225
Y0093853
X0019685
X0017145
Y0096393
X0014605
X0012065
Y0093853
X0014605
X0019685Y0096393
X0041148Y0083693
X0043434
X0053594
X005588
X0058166
X0060452
X0070612Y0096393
X0073152
X0075692
X0078232
X0080772
T05
X0055372Y0026035
Y0028575
Y0031115
Y0033655
Y0036195
Y0038735
X0070612
Y0036195
Y0033655
Y0031115
Y0028575
Y0026035
Y0041275
Y0043815
Y0046355
Y0048895
Y0051435
Y0053975
Y0056515
Y0059055
X0055372
Y0056515
Y0053975
Y0051435
Y0048895
Y0046355
Y0043815
Y0041275
T06
X001301Y0004572
X001651
X0028265
X0031765
X0043505
X0047005
X0058745
X0062245
X0095885Y0022169
Y0025669
X0095758Y0038298
Y0041798
T07
X0017907Y0029718
Y0032258
Y0034798
Y0043942
Y0046482
Y0049022
Y0059055
Y0061595
Y0064135
T08
X000951Y0004572
X0024765
X0040005
X0055245
X0095885Y0018669
X0095758Y0034798
T09
X0004826Y0023575
Y0028575
Y0042545
Y0047545
X0004953Y0062103
Y0067103
X0046181Y0094742
X0051181
T10
X0007874Y0074422
Y0095504
X0028956
T11
X0002794Y0002794
X0098806
X0002794Y0098806
X0098806
M30
