G04*
G04 #@! TF.GenerationSoftware,Altium Limited,Altium Designer,25.7.1 (20)*
G04*
G04 Layer_Color=8388736*
%FSLAX44Y44*%
%MOMM*%
G71*
G04*
G04 #@! TF.SameCoordinates,9BF2C3B0-3B17-4BF1-8F46-E5792BC6C144*
G04*
G04*
G04 #@! TF.FilePolarity,Negative*
G04*
G01*
G75*
%ADD16C,1.6032*%
%ADD17R,1.6032X1.6032*%
%ADD18R,1.5532X1.5532*%
%ADD19C,1.5532*%
%ADD20R,1.5532X1.5532*%
%ADD21C,2.7432*%
%ADD22C,1.9812*%
%ADD23C,1.7332*%
%ADD24C,2.6245*%
%ADD25R,2.6245X2.6245*%
%ADD26R,2.6245X2.6245*%
%ADD27C,1.8500*%
%ADD28R,1.8500X1.8500*%
%ADD29C,2.1082*%
%ADD30R,1.9812X1.9812*%
%ADD31C,2.9972*%
%ADD32C,1.4732*%
D16*
X57150Y370840D02*
D03*
X52070Y566420D02*
D03*
X55880Y180340D02*
D03*
D17*
X57150Y345440D02*
D03*
X52070Y541020D02*
D03*
X55880Y154940D02*
D03*
D18*
X154390Y217170D02*
D03*
X391330Y426720D02*
D03*
X391160Y598170D02*
D03*
X389340Y368300D02*
D03*
X390610Y482600D02*
D03*
X388070Y309880D02*
D03*
X391160Y539750D02*
D03*
D19*
X244390Y217170D02*
D03*
X121920Y422190D02*
D03*
X124460Y583480D02*
D03*
X480610Y482600D02*
D03*
X481160Y539750D02*
D03*
Y598170D02*
D03*
X481330Y426720D02*
D03*
X479340Y368300D02*
D03*
X478070Y309880D02*
D03*
X350520Y667470D02*
D03*
X407670D02*
D03*
X463550D02*
D03*
X521970D02*
D03*
X579120Y666920D02*
D03*
X636270Y666200D02*
D03*
D20*
X121920Y332190D02*
D03*
X124460Y493480D02*
D03*
X350520Y757470D02*
D03*
X407670D02*
D03*
X463550D02*
D03*
X521970D02*
D03*
X579120Y756920D02*
D03*
X636270Y756200D02*
D03*
D21*
X289560Y955040D02*
D03*
X78740D02*
D03*
Y744220D02*
D03*
D22*
X171450Y963930D02*
D03*
X146050D02*
D03*
X120650D02*
D03*
Y938530D02*
D03*
X146050D02*
D03*
X171450D02*
D03*
X247650D02*
D03*
Y963930D02*
D03*
X196850Y938530D02*
D03*
X222250D02*
D03*
X196850Y963930D02*
D03*
X222250D02*
D03*
X817880Y570230D02*
D03*
X867880D02*
D03*
X706120Y709930D02*
D03*
X107950Y161290D02*
D03*
X259080D02*
D03*
X566420D02*
D03*
X410210D02*
D03*
X816610Y204470D02*
D03*
X824230Y364490D02*
D03*
X292100Y306070D02*
D03*
X293370Y445770D02*
D03*
X294640Y598170D02*
D03*
X883920Y709930D02*
D03*
X146050Y161290D02*
D03*
X292100Y344170D02*
D03*
X297180Y161290D02*
D03*
X448310D02*
D03*
X293370Y483870D02*
D03*
X294640Y636270D02*
D03*
X604520Y161290D02*
D03*
X816610Y242570D02*
D03*
X824230Y402590D02*
D03*
X731520Y709930D02*
D03*
X365760Y836930D02*
D03*
X388620D02*
D03*
X434340D02*
D03*
X535940D02*
D03*
X558800D02*
D03*
X604520D02*
D03*
X833120Y709930D02*
D03*
X858520D02*
D03*
X782320D02*
D03*
X909320D02*
D03*
X807720D02*
D03*
Y963930D02*
D03*
X782320D02*
D03*
X756920D02*
D03*
X731520D02*
D03*
X706120D02*
D03*
X756920Y709930D02*
D03*
D23*
X553720Y260350D02*
D03*
Y285750D02*
D03*
Y311150D02*
D03*
Y336550D02*
D03*
Y361950D02*
D03*
Y387350D02*
D03*
Y412750D02*
D03*
Y438150D02*
D03*
Y463550D02*
D03*
Y488950D02*
D03*
Y514350D02*
D03*
Y539750D02*
D03*
Y565150D02*
D03*
Y590550D02*
D03*
X706120Y260350D02*
D03*
Y285750D02*
D03*
Y311150D02*
D03*
Y336550D02*
D03*
Y361950D02*
D03*
Y387350D02*
D03*
Y412750D02*
D03*
Y438150D02*
D03*
Y463550D02*
D03*
Y488950D02*
D03*
Y514350D02*
D03*
Y539750D02*
D03*
Y565150D02*
D03*
Y590550D02*
D03*
D24*
X461810Y947420D02*
D03*
X48260Y235750D02*
D03*
Y425450D02*
D03*
X49530Y621030D02*
D03*
D25*
X511810Y947420D02*
D03*
D26*
X48260Y285750D02*
D03*
Y475450D02*
D03*
X49530Y671030D02*
D03*
D27*
X179070Y322580D02*
D03*
Y297180D02*
D03*
Y615950D02*
D03*
Y590550D02*
D03*
Y464820D02*
D03*
Y439420D02*
D03*
D28*
Y347980D02*
D03*
Y641350D02*
D03*
Y490220D02*
D03*
D29*
X130099Y45720D02*
D03*
X282651D02*
D03*
X435051D02*
D03*
X587451D02*
D03*
X958850Y221691D02*
D03*
X957580Y382981D02*
D03*
X95098Y45720D02*
D03*
X400050D02*
D03*
X247650D02*
D03*
X552450D02*
D03*
X958850Y186690D02*
D03*
X957580Y347980D02*
D03*
X165100Y45720D02*
D03*
X317652D02*
D03*
X470052D02*
D03*
X622452D02*
D03*
X958850Y256692D02*
D03*
X957580Y417982D02*
D03*
D30*
X411480Y836930D02*
D03*
X581660D02*
D03*
D31*
X988060Y27940D02*
D03*
X27940D02*
D03*
Y988060D02*
D03*
X988060D02*
D03*
D32*
X800100Y462280D02*
D03*
X848360Y485140D02*
D03*
X824230Y473710D02*
D03*
X773430Y449580D02*
D03*
M02*
