G04*
G04 #@! TF.GenerationSoftware,Altium Limited,Altium Designer,25.7.1 (20)*
G04*
G04 Layer_Physical_Order=2*
G04 Layer_Color=16711680*
%FSLAX44Y44*%
%MOMM*%
G71*
G04*
G04 #@! TF.SameCoordinates,9BF2C3B0-3B17-4BF1-8F46-E5792BC6C144*
G04*
G04*
G04 #@! TF.FilePolarity,Positive*
G04*
G01*
G75*
%ADD11C,0.2540*%
%ADD27C,1.8500*%
%ADD28R,1.8500X1.8500*%
%ADD33C,2.2860*%
%ADD34C,1.2700*%
%ADD35C,1.4000*%
%ADD36R,1.4000X1.4000*%
%ADD37R,1.3500X1.3500*%
%ADD38C,1.3500*%
%ADD39R,1.3500X1.3500*%
%ADD40C,2.5400*%
%ADD41C,1.7780*%
%ADD42C,1.5300*%
%ADD43C,2.4213*%
%ADD44R,2.4213X2.4213*%
%ADD45R,2.4213X2.4213*%
%ADD46C,1.9050*%
%ADD47R,1.7780X1.7780*%
%ADD48C,2.7940*%
%ADD49C,1.2700*%
%ADD50C,0.7620*%
D11*
X143510Y605790D02*
X179070Y641350D01*
X143510Y251460D02*
Y605790D01*
Y251460D02*
X158750Y236220D01*
X152400Y262890D02*
Y463550D01*
Y262890D02*
X168910Y246380D01*
X152400Y463550D02*
X179070Y490220D01*
X161290Y269240D02*
X175260Y255270D01*
X161290Y330200D02*
X179070Y347980D01*
X161290Y269240D02*
Y330200D01*
X48260Y235750D02*
X92240Y191770D01*
X228600D01*
X243440Y206610D01*
Y216220D01*
X244390Y217170D01*
X728980Y359410D02*
Y435610D01*
X817880Y524510D01*
Y570230D01*
X706120Y336550D02*
X728980Y359410D01*
X553720Y311150D02*
X577850D01*
X654050Y234950D01*
X732790D01*
X777240Y279400D01*
X798631Y460811D02*
X800100Y462280D01*
X777240Y279400D02*
Y422910D01*
X798631Y444301D01*
Y460811D01*
X95098Y45720D02*
X95250Y45872D01*
X237490Y425450D02*
Y427990D01*
X233680Y586740D02*
X237490D01*
X411480Y836930D02*
Y896620D01*
X480610Y482600D02*
X480885Y482875D01*
Y539475D02*
X481160Y539750D01*
X480885Y482875D02*
Y539475D01*
X481160Y539750D02*
Y598170D01*
Y636100D02*
X481330Y636270D01*
X481160Y598170D02*
Y636100D01*
X581660Y836930D02*
Y901700D01*
X580390Y902970D02*
X581660Y901700D01*
X264160Y283210D02*
X308610D01*
X328930Y303530D01*
X236220Y255270D02*
X264160Y283210D01*
X175260Y255270D02*
X236220D01*
X338455Y545465D02*
X391160Y598170D01*
X328930Y303530D02*
Y407670D01*
X338455Y417195D02*
Y545465D01*
X328930Y407670D02*
X338455Y417195D01*
X347980Y426720D01*
X391330D01*
X168910Y246380D02*
X242570D01*
X270510Y274320D01*
X316230D01*
X342900Y300990D01*
Y351790D01*
X359410Y368300D01*
X389340D01*
X251460Y236220D02*
X279400Y264160D01*
X323850D01*
X369570Y309880D02*
X391977D01*
X323850Y264160D02*
X369570Y309880D01*
X158750Y236220D02*
X251460D01*
X553720Y260350D02*
X579120D01*
X622300Y217170D01*
X746760D01*
X797560Y267970D01*
Y417830D01*
X848360Y468630D01*
Y485140D01*
X638810Y227330D02*
X740410D01*
X580390Y285750D02*
X638810Y227330D01*
X553720Y285750D02*
X580390D01*
X740410Y227330D02*
X787400Y274320D01*
Y420370D01*
X824230Y457200D01*
Y473710D01*
X553720Y361950D02*
X581660Y389890D01*
Y570230D01*
X684530Y673100D01*
X770890D01*
X782320Y684530D02*
Y709930D01*
X770890Y673100D02*
X782320Y684530D01*
X557378Y344018D02*
X595630Y382270D01*
X557378Y343661D02*
Y344018D01*
X553720Y340003D02*
X557378Y343661D01*
X553720Y336550D02*
Y340003D01*
X595630Y382270D02*
Y509270D01*
X730250Y643890D01*
X909320Y692150D02*
Y709930D01*
X861060Y643890D02*
X909320Y692150D01*
X730250Y643890D02*
X861060D01*
X773430Y433070D02*
Y449580D01*
X758190Y417830D02*
X773430Y433070D01*
X758190Y274320D02*
Y417830D01*
X706120Y260350D02*
X744220D01*
X758190Y274320D01*
D27*
X179070Y322580D02*
D03*
Y297180D02*
D03*
Y615950D02*
D03*
Y590550D02*
D03*
Y464820D02*
D03*
Y439420D02*
D03*
D28*
Y347980D02*
D03*
Y641350D02*
D03*
Y490220D02*
D03*
D33*
X95250Y45872D02*
Y57150D01*
X172720Y134620D01*
X146050Y161290D02*
X172720Y134620D01*
X195636Y280614D02*
X214574D01*
X179070Y297180D02*
X195636Y280614D01*
X179070Y439420D02*
X205796Y412694D01*
X224734D01*
X237490Y425450D01*
Y398780D02*
Y425450D01*
Y427990D02*
Y539750D01*
X247650Y45720D02*
Y68580D01*
X400050Y45720D02*
Y59690D01*
X474980Y134620D01*
X237490Y303530D02*
Y398780D01*
X214574Y280614D02*
X237490Y303530D01*
Y398780D02*
X292100Y344170D01*
X297180Y161290D02*
X318770Y139700D01*
X448310Y161290D02*
X474980Y134620D01*
X179070Y590550D02*
X198811Y570809D01*
X217749D01*
X233680Y586740D01*
X237490Y671830D02*
Y767080D01*
X196850Y938530D02*
Y963930D01*
Y938530D02*
X222250D01*
X196850Y963930D02*
X222250D01*
X196850D02*
X228600Y995680D01*
X237490Y539750D02*
X293370Y483870D01*
X237490Y539750D02*
Y586740D01*
Y671830D02*
X259080D01*
X294640Y636270D01*
X237490Y586740D02*
Y671830D01*
Y767080D02*
X367030Y896620D01*
X411480D01*
X228600Y995680D02*
X488950D01*
X411480Y896620D02*
X461010D01*
X511810Y947420D01*
X552450Y45720D02*
Y54610D01*
X474980Y134620D02*
X632460D01*
X552450Y54610D02*
X632460Y134620D01*
X605790Y161290D02*
X632460Y134620D01*
X977900D01*
X873760Y242570D02*
X929640Y186690D01*
X958850D01*
X989330Y156210D02*
X999490D01*
X977900Y134620D02*
X999490Y156210D01*
X958850Y186690D02*
X989330Y156210D01*
X816610Y242570D02*
X873760D01*
X927100Y347980D02*
X957580D01*
X824230Y402590D02*
X872490D01*
X927100Y347980D01*
X999490Y306070D02*
Y613410D01*
Y156210D02*
Y306070D01*
X957580Y347980D02*
X999490Y306070D01*
X511810Y947420D02*
X556260Y902970D01*
X488950Y995680D02*
X511810Y972820D01*
Y947420D02*
Y972820D01*
X556260Y902970D02*
X580390D01*
X802640D01*
X999490Y650240D02*
Y833120D01*
Y613410D02*
Y650240D01*
X802640Y902970D02*
X929640D01*
X999490Y833120D01*
X172720Y134620D02*
X474980D01*
X247650Y68580D02*
X318770Y139700D01*
D34*
X294640Y636270D02*
X481330D01*
X508000D01*
X553720Y590550D01*
X748030Y565150D02*
X800100Y617220D01*
X706120Y565150D02*
X748030D01*
X966470Y617220D02*
X999490Y650240D01*
X731520Y709930D02*
Y831850D01*
X802640Y902970D01*
X800100Y617220D02*
X966470D01*
D35*
X57150Y370840D02*
D03*
X52070Y566420D02*
D03*
X55880Y180340D02*
D03*
D36*
X57150Y345440D02*
D03*
X52070Y541020D02*
D03*
X55880Y154940D02*
D03*
D37*
X154390Y217170D02*
D03*
X391330Y426720D02*
D03*
X391160Y598170D02*
D03*
X389340Y368300D02*
D03*
X390610Y482600D02*
D03*
X388070Y309880D02*
D03*
X391160Y539750D02*
D03*
D38*
X244390Y217170D02*
D03*
X121920Y422190D02*
D03*
X124460Y583480D02*
D03*
X480610Y482600D02*
D03*
X481160Y539750D02*
D03*
Y598170D02*
D03*
X481330Y426720D02*
D03*
X479340Y368300D02*
D03*
X478070Y309880D02*
D03*
X350520Y667470D02*
D03*
X407670D02*
D03*
X463550D02*
D03*
X521970D02*
D03*
X579120Y666920D02*
D03*
X636270Y666200D02*
D03*
D39*
X121920Y332190D02*
D03*
X124460Y493480D02*
D03*
X350520Y757470D02*
D03*
X407670D02*
D03*
X463550D02*
D03*
X521970D02*
D03*
X579120Y756920D02*
D03*
X636270Y756200D02*
D03*
D40*
X289560Y955040D02*
D03*
X78740D02*
D03*
Y744220D02*
D03*
D41*
X171450Y963930D02*
D03*
X146050D02*
D03*
X120650D02*
D03*
Y938530D02*
D03*
X146050D02*
D03*
X171450D02*
D03*
X247650D02*
D03*
Y963930D02*
D03*
X196850Y938530D02*
D03*
X222250D02*
D03*
X196850Y963930D02*
D03*
X222250D02*
D03*
X817880Y570230D02*
D03*
X867880D02*
D03*
X706120Y709930D02*
D03*
X107950Y161290D02*
D03*
X259080D02*
D03*
X566420D02*
D03*
X410210D02*
D03*
X816610Y204470D02*
D03*
X824230Y364490D02*
D03*
X292100Y306070D02*
D03*
X293370Y445770D02*
D03*
X294640Y598170D02*
D03*
X883920Y709930D02*
D03*
X146050Y161290D02*
D03*
X292100Y344170D02*
D03*
X297180Y161290D02*
D03*
X448310D02*
D03*
X293370Y483870D02*
D03*
X294640Y636270D02*
D03*
X604520Y161290D02*
D03*
X816610Y242570D02*
D03*
X824230Y402590D02*
D03*
X731520Y709930D02*
D03*
X365760Y836930D02*
D03*
X388620D02*
D03*
X434340D02*
D03*
X535940D02*
D03*
X558800D02*
D03*
X604520D02*
D03*
X833120Y709930D02*
D03*
X858520D02*
D03*
X782320D02*
D03*
X909320D02*
D03*
X807720D02*
D03*
Y963930D02*
D03*
X782320D02*
D03*
X756920D02*
D03*
X731520D02*
D03*
X706120D02*
D03*
X756920Y709930D02*
D03*
D42*
X553720Y260350D02*
D03*
Y285750D02*
D03*
Y311150D02*
D03*
Y336550D02*
D03*
Y361950D02*
D03*
Y387350D02*
D03*
Y412750D02*
D03*
Y438150D02*
D03*
Y463550D02*
D03*
Y488950D02*
D03*
Y514350D02*
D03*
Y539750D02*
D03*
Y565150D02*
D03*
Y590550D02*
D03*
X706120Y260350D02*
D03*
Y285750D02*
D03*
Y311150D02*
D03*
Y336550D02*
D03*
Y361950D02*
D03*
Y387350D02*
D03*
Y412750D02*
D03*
Y438150D02*
D03*
Y463550D02*
D03*
Y488950D02*
D03*
Y514350D02*
D03*
Y539750D02*
D03*
Y565150D02*
D03*
Y590550D02*
D03*
D43*
X461810Y947420D02*
D03*
X48260Y235750D02*
D03*
Y425450D02*
D03*
X49530Y621030D02*
D03*
D44*
X511810Y947420D02*
D03*
D45*
X48260Y285750D02*
D03*
Y475450D02*
D03*
X49530Y671030D02*
D03*
D46*
X130099Y45720D02*
D03*
X282651D02*
D03*
X435051D02*
D03*
X587451D02*
D03*
X958850Y221691D02*
D03*
X957580Y382981D02*
D03*
X95098Y45720D02*
D03*
X400050D02*
D03*
X247650D02*
D03*
X552450D02*
D03*
X958850Y186690D02*
D03*
X957580Y347980D02*
D03*
X165100Y45720D02*
D03*
X317652D02*
D03*
X470052D02*
D03*
X622452D02*
D03*
X958850Y256692D02*
D03*
X957580Y417982D02*
D03*
D47*
X411480Y836930D02*
D03*
X581660D02*
D03*
D48*
X988060Y27940D02*
D03*
X27940D02*
D03*
Y988060D02*
D03*
X988060D02*
D03*
D49*
X800100Y462280D02*
D03*
X848360Y485140D02*
D03*
X824230Y473710D02*
D03*
X773430Y449580D02*
D03*
D50*
X956310Y570230D02*
X999490Y613410D01*
X867880Y570230D02*
X956310D01*
M02*
